<?xml version="1.0" encoding="utf-8"?>
<!-- Generator: Adobe Illustrator 16.0.3, SVG Export Plug-In . SVG Version: 6.00 Build 0)  -->
<!DOCTYPE svg PUBLIC "-//W3C//DTD SVG 1.1//EN" "http://www.w3.org/Graphics/SVG/1.1/DTD/svg11.dtd">
<svg version="1.1" id="Layer_1" xmlns="http://www.w3.org/2000/svg" xmlns:xlink="http://www.w3.org/1999/xlink" x="0px" y="0px"
	 width="722px" height="814px" viewBox="0 0 722 814" enable-background="new 0 0 722 814" xml:space="preserve">
<path fill-rule="evenodd" clip-rule="evenodd" fill="#8C8C8C" d="M153.527,648.434c-15.156,0.07-30.313,0.01-45.469,0.046
	c-6.917,0.017-6.92,0.066-7.577,7.217c-0.137,1.493-0.176,3.011-1.288,4.201c-0.419,0.001-0.839,0.003-1.258,0.005
	c0.058-14.245,3.083-28.213,3.927-42.396c0.74-12.427,2.06-24.821,3.17-37.226c1.435-16.044,2.896-32.086,4.382-48.126
	c1.118-12.069,2.13-24.15,3.468-36.194c3.592-32.342,1.937-64.798,2.432-97.209c0.065-4.259-0.392-7.365-5.418-7.646
	c4.019-1.927,4.783-5.287,4.62-9.415c-0.243-6.129-0.105-12.275-0.04-18.413c0.025-2.295-0.233-4.688,1.389-6.671
	c1.914-1.303,4.112-1.177,6.262-1.212c30.246-0.494,60.485-1.462,90.742-1.036c7.359,0.104,7.361-0.003,8.848-7.086
	c0.173-0.826,0.487-1.584,1.003-2.254c3.627-1.847,6.383-1.061,8.141,2.715c-2.347,0.753-4.775-2.662-6.353-0.862
	c-1.648,1.881-0.423,5.068-0.558,7.68c-0.06,1.145-0.016,2.295-0.02,3.442c-5.721,7.735-12.425,14.63-18.672,21.916
	c-6.348,7.403-13.493,14.152-18.714,22.494c-0.547,0.874-1.317,0.843-2.171,0.57c-6.445-2.651-13.147-1.353-19.749-1.251
	c-3.027,0.046-3.053,2.608-3.08,4.79c-0.103,8.494-0.276,16.997,0.005,25.481c0.719,21.701-1.842,43.176-3.601,64.739
	c-1.731,21.228-3.957,42.409-5.727,63.631c-1.853,22.21-3.603,44.452-6.23,66.599c-0.472,3.974-0.368,7.99-1.079,11.936
	c-0.602,3.339-0.664,7.631,2.463,7.602"/>
<path fill-rule="evenodd" clip-rule="evenodd" fill="#020302" d="M164.128,658.807c-0.616-0.049-0.938,0.287-1.096,0.838
	c-1.766,1.992-4.179,1.784-6.466,1.797c-10.923,0.063-21.896,0.665-32.752-0.195c-7.527-0.596-20.002-0.916-26.002-0.916
	c0.273-3.759,0.375-8.08,0.737-11.034c2.439-2.594,10.696-1.29,14.441-1.413c5.293-0.175,10.597,0.001,15.895-0.057
	c5.606-0.062,12.185-1.4,17.802-2.201c5.536-0.789,12.208,0.845,15.755,2.068C166.479,651.003,166.799,653.107,164.128,658.807z"/>
<path fill-rule="evenodd" clip-rule="evenodd" fill="#72C599" d="M140.739,815.731c-23.389,0.056-46.778,0.138-70.167,0.154
	c-13.104,0.01-26.208-0.088-39.313-0.137c-0.757-2.575,0.948-4.516,1.978-6.456c9.206-17.352,18.144-34.842,27.26-52.237
	c6.947-13.254,13.85-26.545,20.519-39.948c1.504-3.021,0.528-3.925-2.434-3.917c-4.497,0.012-8.994-0.037-13.491,0.028
	c-2.607,0.039-4.325,1.274-5.506,3.589c-9.758,19.118-19.854,38.061-29.737,57.114c-7.253,13.983-13.747,28.388-22.125,41.78
	c-2.241,0.065-4.482,0.13-6.724,0.195c0-34.995,0-69.991,0-104.986c12.3,0.078,24.6,0.135,36.9,0.251
	c2.337,0.022,3.403-1.227,4.53-3.134c8.832-14.948,17.907-29.754,26.649-44.753c1.519-2.606,3.15-3.346,5.909-3.311
	c7.647,0.098,15.298-0.026,22.948-0.063c0.525-0.37,1.104-0.612,1.735-0.732c16.624,0.419,33.252,0.063,49.878,0.218
	c4.003,0.039,7.901-1.268,11.917-0.762c5.215,1.562,10.577,0.738,15.876,0.912c10.781,1.105,7.133,1.555,4.252,7.182
	c-6.294,12.292-12.555,24.602-18.948,36.844c-2.72,5.208-2.334,5.828,3.555,5.882c3.329,0.03,6.659,0.035,9.988-0.02
	c2.053-0.033,4.068-0.31,5.373-2.096c2.593-3.551,6.277-3.898,10.242-3.894c27.968,0.032,55.94,0.356,83.901-0.088
	c22.454-0.356,44.414-4.01,64.902-13.851c12.021-5.774,22.447-13.69,30.255-24.66c2.363-3.322,5.156-4.508,9.251-4.49
	c34.293,0.15,68.587,0.071,102.881,0.122c2.035,0.003,4.415-0.895,5.96,1.41c-0.03,0.331-0.061,0.662-0.09,0.994
	c-16.608,26.715-32.597,53.801-48.674,80.836c-12.246,20.591-24.287,41.304-36.911,61.67c-1.139,1.838-1.785,3.942-3.043,5.729
	c-3.062,4.347-5.423,4.429-8.378,0.122c-5.656-8.24-11.191-16.572-16.311-25.146c-6.665-11.16-14.318-21.661-21.199-32.679
	c-6.699-10.725-13.552-21.365-20.548-31.906c-0.829-1.249-1.654-2.5-2.492-3.743c-1.547-2.294-2.852-1.775-4.083,0.271
	c-2.403,3.995-4.675,8.064-7.084,12.056c-10.833,17.951-21.532,35.982-32.197,54.033c-6.254,10.586-12.594,21.12-18.952,31.643
	c-34.635,0.018-69.27,0.036-103.904,0.055c-1.052-4.544,2.157-7.803,3.92-11.235c14.131-27.501,28.435-54.914,42.779-82.306
	c4.59-8.766,4.38-8.425-5.201-9.282c-8.998-0.806-13.516,2.563-17.58,10.551c-15.068,29.618-30.249,59.186-45.726,88.596
	C142.59,813.449,142.175,814.95,140.739,815.731z"/>
<path fill-rule="evenodd" clip-rule="evenodd" fill="#47906A" d="M393.916,111.805c0.796-0.196,1.588-0.549,2.388-0.564
	c16.79-0.325,33.579-1.869,50.375-0.151c1.146,0.117,2.351-0.003,3.347,0.774c-2.245,2.212-5.076,1.479-7.743,1.55
	c-8.886-0.337-8.886-0.337-8.887,8.684c0,3.975-0.021,7.949,0.006,11.923c0.041,6.233,0.107,6.289,6.382,6.542
	c0.992,0.04,1.986,0.064,2.974,0.215c2.544,0.55,5.131,0.71,7.71,0.957c1.957,0.187,3.89,0.613,4.695,2.808
	c-1.225,2.115-3.188,1.448-4.901,1.131c-12.989-2.399-25.921-1.598-38.703,1.14c-22.006,4.712-40.404,15.85-55.729,32.231
	c-11.123,11.889-18.866,25.713-23.683,41.207c-6.036,19.416-6.5,39.001-1.226,58.629c7.728,28.757,24.672,50.741,50.202,65.772
	c15.565,9.164,32.509,14.304,50.893,14.079c5.348-0.065,10.951-1.575,16.114,1.303c-1.595,3.582-4.858,2.146-7.416,2.238
	c-7.355,0.264-7.375,0.131-7.376,7.639c-0.004,71.29-0.001,142.579-0.006,213.869c0,2.165,0.104,4.336-0.171,6.489
	c-0.193,1.521-0.563,3.061-2.215,3.613c-1.704,0.57-2.935-0.567-3.838-1.725c-3.584-4.593-7.211-9.173-10.539-13.942
	c-17.823-25.538-34.603-51.738-50.192-78.718c-11.921-20.63-22.746-41.833-32.827-63.369c-6.894-14.728-12.857-29.931-18.745-45.142
	c-7.709-19.918-13.697-40.313-18.758-60.995c-3.561-14.553-6.178-29.314-7.455-44.278c-0.622-7.292-1.723-14.563-1.938-21.866
	c-0.693-23.614,3.016-46.583,12.784-68.135c11.358-25.061,28.345-45.656,51.292-61.235c13.815-9.38,28.842-15.789,44.87-20.112
	c3.93-1.061,7.969-1.439,11.71-1.929C403.003,112.228,398.365,115.101,393.916,111.805z"/>
<path fill-rule="evenodd" clip-rule="evenodd" fill="#47906A" d="M268.992,815.758c-0.332-4.81,3.332-7.819,5.411-11.452
	c6.961-12.165,14.262-24.137,21.468-36.161c9.345-15.592,18.774-31.134,28.037-46.775c1.595-2.693,3.042-5.438,5.441-8.104
	c6.044,7.583,10.797,15.873,16.053,23.793c9.226,13.901,18.162,27.995,27.193,42.025c6.8,10.565,13.576,21.146,20.325,31.743
	c2.381,3.74,3.587,3.898,5.931,0.104c5.038-8.158,9.964-16.388,14.796-24.67c3.73-6.396,7.31-12.869,11.325-19.106
	c3.741-5.812,6.885-12.003,10.394-17.965c4.945-8.4,10.092-16.684,14.959-25.128c6.192-10.739,13.064-21.063,19.11-31.898
	c5.3-9.5,11.235-18.647,16.891-27.95c0.579-0.952,1.515-1.231,2.54-1.34c10.394,16.007,20.788,32.015,31.181,48.022
	c3.39,1.849,5.098,5.236,6.986,8.26c10.367,16.579,21.472,32.685,31.629,49.396c3.97,6.449,8.729,12.389,12.342,19.071
	c5.037,7.563,10.252,15.009,14.873,22.841c0.96,1.629,2.804,3.104,0.994,5.261c-0.997,0.042-1.995,0.119-2.992,0.119
	c-103.964,0.008-207.927,0.009-311.89,0.006C270.989,815.849,269.991,815.789,268.992,815.758z"/>
<path fill-rule="evenodd" clip-rule="evenodd" fill="#23553B" d="M454.954,144.794c-1.742-1.857-4.047-1.787-6.317-1.851
	c-1.941-0.054-3.91,0.033-5.692-0.968c-0.401-3.723,1.139-5.349,4.927-4.871c28.786,3.628,53.305,15.254,72.946,37.223
	c12.28,13.734,20.626,29.281,25.926,46.68c1.355,4.449,2.509,9.012,1.768,13.76c-0.244,1.563,0.15,2.965,0.749,4.361
	c0.995,2.322,0.889,4.647-0.572,6.668c-2.893,3.999-3.421,7.833,0.09,11.764c0.904,1.014,1.505,2.51,1.039,3.738
	c-3.254,8.572-1.37,17.823-4.619,26.674c-8.023,21.866-20.231,40.444-38.402,54.948c-14.837,11.843-31.625,19.684-50.444,22.766
	c-4.392,0.719-8.852,0.61-13.199,2.136c-2.946,1.035-4.043,2.503-3.877,5.394c0.086,1.494,0.011,2.999,0.011,4.499
	c-0.004,65.472,0.006,130.946-0.006,196.872c13.72-19.827,26.691-39.662,39.002-59.962c9.51-15.685,18.437-31.693,26.918-47.911
	c8.632-16.505,17.003-33.182,24.175-50.436c4.601-11.069,9.292-22.103,13.529-33.313c4.177-11.051,7.702-22.327,11.173-33.628
	c4.205-13.699,7.036-27.729,10.725-41.548c2.154-8.07,1.729-16.526,2.718-24.784c0.582-4.853,1.003-9.484,4.681-13.322
	c2.417-2.522,1.426-5.979,0.96-9.095c-0.196-1.312-1.508-2.736-1.066-3.779c2.877-6.792-2.232-11.535-3.8-17.235
	c-1.655-6.019-1.347-12.616-3.039-18.696c-8.734-31.364-25.87-57.042-52.151-76.54c-15.223-11.293-32.175-18.714-50.414-23.367
	c-4.672-1.191-9.534-1.43-14.353-1.854c-5.119-0.45-7.053-2.812-6.392-7.042c2.694-0.07,5.388-0.141,8.081-0.212
	c12.523,0.428,24.144,4.649,35.671,8.917c10.819,4.007,20.937,9.534,30.271,16.385c13.872,10.183,25.809,22.121,35.449,36.545
	c7.068,10.576,12.869,21.603,17.041,33.565c6.556,18.798,8.777,38.139,7.929,57.982c-1.689,39.488-11.122,77.312-24.514,114.233
	c-11.115,30.65-24.466,60.33-39.519,89.288c-11.186,21.521-23.175,42.572-35.92,63.158c-12.514,20.211-25.572,40.113-39.687,59.278
	c-0.486,0.66-1.158,1.184-1.744,1.771c-1.578,2.754-3.918,3.619-7.077,3.486c-5.465-0.229-10.949-0.147-16.423-0.023
	c-2.312,0.053-4.265-0.332-5.668-2.304c-6.575-7.093-11.664-15.307-17.249-23.13c-14.375-20.136-27.518-41.096-40.153-62.344
	c-9.933-16.703-19.084-33.867-27.813-51.251c-8.282-16.494-15.92-33.277-22.832-50.381c-3.985-9.862-7.832-19.792-11.009-29.96
	c-0.561-2.075-1.266-4.101-2-6.122c-0.728-2.004-0.535-3.699,1.118-5.43c2.902-3.039,2.771-5.045-1.143-6.738
	c-4.577-1.978-6.462-5.175-6.845-9.76c-3.582-10.761-5.659-21.901-7.9-32.969c-3.705-18.299-5.406-36.858-6.191-55.517
	c-0.636-15.106,1.059-29.927,5.102-44.433c7.298-26.188,21.214-48.293,41.093-66.895c15.714-14.704,33.909-25.108,54.084-31.792
	c9.524-3.155,19.537-5.578,29.817-5.622c5.309,0,10.616,0,15.924,0c-9.614,2.302-18.994,5.085-28.188,8.327
	c-10.465,3.69-20.186,8.96-29.516,15.057c-15.229,9.951-27.632,22.756-38.075,37.415c-6.306,8.853-11.401,18.496-15.405,28.73
	c-5.229,13.37-8.121,27.155-9.822,41.368c-1.958,16.357,0.347,32.411,1.875,48.584c1.628,17.237,5.295,34.087,9.673,50.727
	c2.886,10.971,6.226,21.885,10.052,32.644c3.158,8.878,6.774,17.566,9.897,26.43c2.862,8.125,6.775,15.769,9.761,23.828
	c2.4,6.476,5.729,12.615,8.753,18.851c5.404,11.14,10.368,22.534,16.472,33.28c7.732,13.615,15.318,27.322,23.561,40.667
	c7.033,11.387,13.972,22.828,21.374,33.98c8.691,13.098,17.512,26.105,26.972,38.666c0.942,1.251,1.778,3.368,3.627,2.762
	c1.627-0.533,1.015-2.614,1.019-4.054c0.031-12.494,0.019-24.987,0.019-37.481c0-60.968-0.011-121.936,0.012-182.904
	c0.003-8.799-0.854-7.323,7.294-7.676c2.909-0.126,5.989,0.77,8.718-1.029c1.66-1.988,4.102-2.062,6.353-2.491
	c18.014-3.432,34.353-10.703,48.46-22.357c18.09-14.943,30.398-33.771,36.248-56.684c7.242-28.368,3.274-55.265-11.101-80.492
	c-10.996-19.298-26.744-33.8-47.018-43.252c-7.265-3.388-14.612-6.428-22.487-8.078C457.09,146.355,455.721,146.092,454.954,144.794
	z"/>
<path fill-rule="evenodd" clip-rule="evenodd" fill="#383938" d="M185.855,403.025c0.375-1.715,0.239-3.391,1.672-4.989
	c10.847-12.101,21.5-24.375,32.281-36.534c1.181-1.332,2.292-2.879,4.122-3.507c5.175,24.014,10.4,48.017,15.5,72.046
	c2.07,9.755,2.951,19.471,2.138,29.617c-2.047,25.529-3.054,51.144-4.45,76.724c-1.903,34.884-3.704,69.773-5.776,104.647
	c-0.238,4.013,0.948,4.99,4.587,4.706c3.143-0.245,6.32-0.039,9.481-0.062c2.208-0.015,4.33,0.165,5.844,2.08
	c-0.941,1.203-2.274,1.276-3.625,1.21c-16.149-0.796-32.264,1.213-48.419,0.537c-7.335-0.307-8.004,0.56-7.836,6.875
	c0.031,1.167-0.3,2.313-1.021,3.294c-0.52,0.5-1.077,0.544-1.671,0.137c-2.053-4.11-1.442-8.578-0.855-12.718
	c1.037-7.313,0.555-14.589,0.682-21.879c1.12-17.561,1.668-35.165,3.397-52.683c0.964-9.771,0.817-19.576,1.365-29.357
	c1.237-22.049,2.506-44.103,4.197-66.113c1.25-16.27-1.698-31.713-6.266-47.061c-2.135-7.174-3.224-14.611-5.622-21.719
	C185.01,406.579,184.563,404.709,185.855,403.025z"/>
<path fill-rule="evenodd" clip-rule="evenodd" fill="#47906A" d="M653.017,715.708c13.491,20.892,26.97,41.789,40.476,62.669
	c7.477,11.559,14.999,23.086,22.501,34.628c0.516,1.081,0.389,1.97-0.905,2.253c-1.306,0.287-2.653,0.119-3.982,0.119
	c-38.456,0.008-76.912,0.008-115.367,0.004c-6.394-0.002-7.104-1.271-3.749-6.93c17.053-28.765,33.883-57.663,51.457-86.116
	c1.313-2.127,1.983-4.604,3.586-6.559C648.975,713.409,650.988,712.766,653.017,715.708z"/>
<path fill-rule="evenodd" clip-rule="evenodd" fill="#B5B6B5" d="M189.177,659.966c4.611-0.521,9.244-0.608,13.866-0.356
	c4.44,0.241,5.399,1.786,3.509,5.757c-1.716,3.601-3.421,7.212-5.343,10.721c-2.34,4.274-1.744,5.279,3.066,5.316
	c11.985,0.092,23.972,0.074,35.958,0.021c16.634-0.074,33.284,0.548,49.887-1.024c16.098-1.523,31.362-5.869,45.649-13.51
	c1.029-0.55,1.997-1.207,2.891-1.957c0.497-0.417,1.062-0.811,1.085-1.917c-1.663-1.04-3.668-0.594-5.541-0.597
	c-24.971-0.035-49.942,0.001-74.913-0.056c-2.578-0.006-5.401,0.629-7.508-1.684c-0.249-1.01-0.105-1.77,1.159-1.813
	c1.839,1.757,4.129,0.939,6.197,0.94c74.643,0.048,149.286,0.028,223.929,0.106c2.017,0.002,4.861-1.427,5.888,1.965
	c-1.918-1.354-4.119-1.082-6.271-1.082c-33.46-0.001-66.92,0.114-100.379-0.128c-4.87-0.035-7.826,1.392-10.539,5.372
	c-7.15,10.493-17.146,17.922-28.225,23.743c-10.438,5.482-21.732,8.64-33.257,11.202c-11.245,2.499-22.613,3.68-34.021,3.81
	c-28.629,0.324-57.264,0.176-85.896,0.07c-3.67-0.013-6.591,0.479-7.975,4.311c-0.531,1.47-1.694,1.857-3.169,1.85
	c-6.159-0.033-12.318-0.036-18.478,0.005c-2.374,0.016-3.007-0.854-1.894-3.019c4.009-7.79,7.978-15.6,11.965-23.4
	c3.901-7.632,8.199-16.5,12.307-24.53"/>
<path fill-rule="evenodd" clip-rule="evenodd" fill="#72C599" d="M653.017,715.708c-2.716-2.072-4.454-0.683-5.703,1.755
	c-7.535,14.707-17.07,28.24-25.07,42.668c-8.886,16.022-19.288,31.143-27.817,47.379c-3.987,7.588-4.228,7.463,4.288,7.463
	c37.282,0,74.564,0.019,111.846-0.054c1.897-0.004,4.533,1.258,5.434-1.914c1.496,0.904,2.852,1.866,0.069,2.802
	c-0.753,0.253-1.65,0.094-2.481,0.094c-41.741-0.004-83.484-0.01-125.226-0.022c-0.495,0-0.99-0.101-1.485-0.154
	c-0.785-4.508-4.047-7.694-6.253-11.416c-3.305-5.577-7.063-10.888-10.627-16.311c11.284-17.271,21.444-35.224,32.093-52.882
	c4.034-6.69,7.999-13.426,12.09-20.083c1.531-2.489,3.234-3.767,6.389-3.687c8.982,0.229,17.974,0.123,26.961,0.052
	c2.315-0.019,4.345,0.169,5.313,2.667C652.896,714.611,652.956,715.16,653.017,715.708z"/>
<path fill-rule="evenodd" clip-rule="evenodd" fill="#D1D2D2" d="M652.835,714.064c-1.639-1.437-3.304-2.403-5.725-2.354
	c-8.661,0.178-17.327,0.132-25.99,0.033c-2.382-0.026-3.823,0.575-5.157,2.825c-9.179,15.492-18.827,30.712-27.791,46.325
	c-4.692,8.172-10.104,15.91-14.396,24.313c-0.782,1.53-1.821,2.814-3.786,2.79c-3.73-6.544-8.665-12.331-12.012-19.116
	c-0.588-2.272,1.023-3.854,2.082-5.367c2.597-3.71,1.49-6.801-0.788-10.041c-7.363-10.475-14.484-21.117-21.741-31.666
	c-1.039-1.51-2.028-3.049-2.97-4.617c-1.682-2.803-3.964-4.229-7.387-4.13c-1.895,0.055-4.487,0.987-5.364-2.033
	c15.772-0.054,31.544-0.138,47.316-0.153c26.07-0.026,52.14-0.02,78.209,0.015C649.695,710.891,652.667,710.135,652.835,714.064z"/>
<path fill-rule="evenodd" clip-rule="evenodd" fill="#D1D2D2" d="M140.739,815.731c1.547-6.21,5.256-11.414,8.071-17.017
	c6.458-12.854,13.265-25.53,19.897-38.296c6.326-12.18,12.6-24.385,18.92-36.567c1.522-2.935,3.269-5.761,4.665-8.752
	c1.048-2.247,2.459-3.252,5.007-3.183c5.495,0.149,10.999,0.111,16.496,0.017c3.25-0.057,3.65,1.071,2.37,3.913
	c-5.049,11.214-11.273,21.823-16.702,32.838c-6.149,12.476-12.877,24.654-19.19,37.049c-4.806,9.436-9.424,19.004-14.758,28.179
	c-0.311,0.535-0.292,1.264-0.426,1.9C156.972,815.786,148.855,815.759,140.739,815.731z"/>
<path fill-rule="evenodd" clip-rule="evenodd" fill="#D1D2D2" d="M7.724,815.702c0.069-2.226,1.001-4.123,2.031-6.063
	c5.118-9.632,10.168-19.301,15.174-28.992c4.848-9.384,9.572-18.833,14.426-28.213c5.161-9.974,10.464-19.874,15.583-29.869
	c1.351-2.636,3.242-4.958,4.202-7.832c0.717-2.146,2.546-2.825,4.785-2.796c5.66,0.073,11.322,0.071,16.981,0.002
	c3.26-0.04,3.881,1.429,2.399,4.015c-6.648,11.604-12.668,23.561-18.689,35.47c-7.836,15.502-16.369,30.646-23.799,46.359
	c-2.897,6.125-6.355,11.984-9.557,17.966C23.414,816.051,15.568,816.057,7.724,815.702z"/>
<path fill-rule="evenodd" clip-rule="evenodd" fill="#818F6A" d="M147.907,304.914c3.119,6.104-0.9,9.492-4.905,12.885
	c-2.477,2.664-5.818,4.092-8.741,6.121c-6.922,3.164-13.115,7.643-19.894,11.065c-4.769,2.809-8.887,6.744-14.369,8.309
	c-2.323,0.664-4.617,1.763-7.095,0.583c-0.041-1.926-1.443-2.77-2.783-3.818c-5.209-4.072-6.281-9.625-2.749-15.331
	c4.087-6.604,8.59-12.938,13.413-19.035c6.727,6.588,13.844,8.189,22.846,3.819c6.006-2.915,12.567-5.136,19.248-6.559
	C144.811,302.947,146.503,303.562,147.907,304.914z"/>
<path fill-rule="evenodd" clip-rule="evenodd" fill="#818F6A" d="M193.792,228.667c-0.244,0.971,0.163,2.401,0.55,3.806
	c1.104,4.001,2.43,7.942,3.494,11.954c1.399,5.277,1.328,5.315-3.963,5.346c-4.831,0.027-9.67,0.179-14.491-0.051
	c-3.362-0.161-4.878,0.768-4.622,4.412c0.28,3.979,0.209,7.999,0.019,11.988c-0.159,3.336,0.879,4.793,4.494,4.801
	c7.291,0.016-3.338,1.459-0.834,2.703c-2.804,0.056,3.048-1.467,0.273-1.721c-3.683-0.335-5.292,0.932-4.723,4.691
	c0.121,0.797,0.018,1.629,0.018,2.711c-2.313-0.423-4.039-1.869-5.028-3.157c-3.327-4.328-7.686-4.424-12.423-4.225
	c-5.277,0.223-10.565,0.146-15.849,0.201c-1.078,0.289-2.01,0.382-1.671-1.238c6.984-0.02,13.972-0.195,20.949,0.008
	c3.347,0.097,4.362-1.112,4.207-4.32c-0.218-4.481-0.071-8.981-0.048-13.473c0.009-1.767-0.024-3.259-2.495-3.349
	c-2.264-0.082-4.912,0.955-6.72-0.81c-1.75-1.708-0.134-3.439-0.135-6.152c-0.001-1.987,0.788-2.545-0.52-4.29
	c0.545-1.657-0.547-2.937,0.272-2.246c0.621,0.977,0.706,2.26,1.504,3.102c1.662,1.754,3.96,1.174,4.401-1.235
	c0.545-2.977,0.34-5.917-1.676-8.486c-1.143-1.456-1.946-3.137-1.528-5.063c0.488-2.247,1.653-4.022,4.122-4.379
	c2.243-0.324,3.283,1.079,3.86,3.018c0.186,0.625,0.47,1.237,1.317,1.524c1.854-0.86,1.104-3.805,3.288-4.5
	c2.65-0.788,4.327,0.122,5.45,2.688c2.699,6.172,4.235,6.811,10.762,4.839c0.795-0.24,1.561-0.477,2.392-0.341
	c1.969,0.663-1.229-2.18-0.313-1.236"/>
<path fill-rule="evenodd" clip-rule="evenodd" fill="#47906A" d="M143.083,303.912c-8.839,3.579-18.139,5.848-26.922,9.651
	c-2.727,1.18-6.183,1.192-8.773-1.605c-2.058-2.222-5.96-2.519-6.603-6.266c2.743-5.782,6.729-10.759,10.412-15.922
	c1.066-1.495,2.15-2.917,2.679-4.691c0.767-2.8,2.454-5.121,4.228-7.289c7.309-8.934,21.849-6.407,25.813,4.757
	C146.41,289.571,146.342,296.907,143.083,303.912z"/>
<path fill-rule="evenodd" clip-rule="evenodd" fill="#24563B" d="M92.904,343.875c2.272-1.624,5.094-1.041,7.61-1.925
	c5.092-1.789,8.698-5.879,13.482-8.061c3.155-0.881,2.96,1.622,3.23,3.375c0.394,2.55-0.049,5.196,0.81,7.701
	c1.017,3.057-1.581,4.337-3.058,6.161c-2.57,3.173-6.563,5.232-7.953,9.707c4.256,0.196,4.95-5.159,8.851-4.813
	c0.031,0.263,0.071,0.524,0.119,0.785c-0.078,9.251-0.172,18.503-0.226,27.755c-0.036,6.036-0.009,6.036-5.872,6.546
	c-8.701,0.247-16.146-6.383-18.323-14.741C88.736,365.469,87.402,354.495,92.904,343.875z"/>
<path fill-rule="evenodd" clip-rule="evenodd" fill="#A15D4D" d="M153.881,236.003c-0.507,0.171-1.014,0.342-1.521,0.514
	c-0.636,0.171-1.263,0.445-1.908,0.497c-3.784,0.307-7.678,0.014-9.836-3.417c-2.136-3.396-0.66-6.992,0.941-10.414
	c1.543-3.301,4.709-5.6,5.559-9.29c7.25-7.345,15.097-13.892,24.662-18.052c1.941-0.844,3.246-2.19,4.324-3.89
	c2.331,0.967,4.596,1.137,7.171,0.556c3.848-0.868,7.774-1.743,11.823-0.737c4.976,1.237,6.915,4.128,5.421,9.192
	c-1.676,5.68-5.013,10.373-9.544,14.199c-1.121,0.619-1.967,0.163-2.716-0.683c-5.88-9.52-6.495-9.661-16.3-4.078
	c-2.027,1.154-3.808,2.685-5.89,3.738c-7.288,3.688-12.706,8.465-10.901,17.783C155.436,233.309,155.271,234.947,153.881,236.003z"
	/>
<path fill-rule="evenodd" clip-rule="evenodd" fill="#81906A" d="M266.089,361.263c-11.939-4.284-23.818-8.736-35.723-13.116
	c-2.053-1.584-4.274-2.759-6.937-2.864c0.024-5.976,0.048-11.951,0.072-17.927c7.421,3.581,14.875,7.098,22.256,10.758
	c9.441,4.682,18.865,9.404,28.216,14.264c4.018,2.088,4.664,2.702,4.75,0.489c1.554,4.014,2.322,3.632,6.822,5.47
	c4.908,2.005,4.973,5.473,0.825,8.427c-1.918,1.366-2.048,2.554-1.453,4.549"/>
<path fill-rule="evenodd" clip-rule="evenodd" fill="#020302" d="M253.192,658.182c-0.616-0.049-0.938,0.287-1.096,0.838
	c-1.766,1.992-4.179,1.784-6.466,1.797c-10.923,0.063-21.273,1.124-32.13,0.264c-7.527-0.596-20.625,0-26.625,0
	c0.273-3.759,0.375-9.455,0.737-12.409c2.439-2.594,10.696-1.29,14.441-1.413c5.293-0.175,10.597,0.001,15.895-0.057
	c5.606-0.062,12.185-1.4,17.802-2.201c5.536-0.789,12.208,0.845,15.755,2.068C255.543,650.378,255.863,652.482,253.192,658.182z"/>
<path fill-rule="evenodd" clip-rule="evenodd" fill="#72C599" d="M521.811,711.026c1.444,1.203,3.258,0.99,4.767,0.678
	c4.591-0.953,6.982,1.68,9.191,4.967c7.799,11.609,15.571,23.237,23.483,34.77c5.247,7.648,5.337,8.381-0.162,15.798
	c-0.394,0.53-0.742,1.094-1.111,1.643c-5.364-6.733-9.424-14.32-14.082-21.515c-4.212-6.505-8.399-13.026-12.639-19.514
	c-3.708-5.673-7.472-11.307-11.212-16.957C520.635,710.939,521.223,710.982,521.811,711.026z"/>
<path fill-rule="evenodd" clip-rule="evenodd" fill="#3C413D" d="M143.083,303.912c0.209-5.273,1.429-10.479,0.896-15.809
	c-0.627-6.277-3.413-10.932-9.425-13.398c-6.578-2.7-12.875-0.652-16.575,5.543c-1.11,1.858-2.029,3.818-4.104,4.831
	c-1.706-1.684-1.168-3.413-0.249-5.276c5.308-10.764,14.227-13.913,25.409-8.915c0.198,0.896,0.904,1.108,1.671,1.238
	c8.869,8.729,11.256,19.022,7.469,30.824c-0.199,0.619-0.183,1.308-0.267,1.964C146.299,304.58,144.691,304.246,143.083,303.912z"/>
<path fill-rule="evenodd" clip-rule="evenodd" fill="#CB7C5D" d="M146.737,211.896c-3.524-7.048-2.81-11.895,2.719-16.931
	c3.309-3.013,6.772-5.709,11.156-7.29c5.632-2.031,10.223-1.144,14.184,3.276c-3.303,3.235-7.957,3.936-11.766,6.283
	C156.672,201.149,150.276,204.898,146.737,211.896z"/>
<path fill-rule="evenodd" clip-rule="evenodd" fill="#2A211E" d="M146.737,211.896c-0.265-3.307,1.302-5.354,3.887-7.45
	c7.31-5.926,15.021-10.95,24.172-13.495c0.435,0.333,0.871,0.666,1.306,1c0.993,1.641,1.292,2.977-1.022,3.873
	c-9.553,3.696-17.733,9.441-24.805,16.824c-0.807,0.842-1.913,1.319-3.159,1.246C146.99,213.227,146.864,212.561,146.737,211.896z"
	/>
<path fill-rule="evenodd" clip-rule="evenodd" fill="#7C8074" d="M189.012,214.082c0.427,0.77,1.231,0.856,1.961,1.078
	c-0.201,1.555,0.192,2.515,2.048,2.456c2.304-0.073,4.62-0.068,6.919,0.078c1.958,0.125,4.169,1.899,2.872,3.556
	c-0.164-0.124-0.954-0.206-1.134-0.304c-1.075-0.492-2.251-0.343-3.376-0.522c-4.193-0.665-7.507-0.007-7.989,5.163
	c-0.087,0.936-0.567,1.89-1.588,2.33c-1.477,0.67-2.928,1.852-4.433,1.924c-7.264,0.346-8.589,0.76-10.094-6.106
	c-0.625-2.856-2.187-2.815-4.211-2.804c-0.065-3.734,1.874-5.566,5.486-5.173C180.155,216.265,184.37,213.536,189.012,214.082z"/>
<path fill-rule="evenodd" clip-rule="evenodd" fill="#47906A" d="M405.835,594.146c2.229,1.565,4.685,1.986,7.397,1.866
	c3.938-0.176,7.899-0.198,11.836-0.002c3.736,0.187,7.159-0.248,9.935-3.023c-0.591,3.407-2.579,4.378-5.983,4.21
	c-6.101-0.299-12.227-0.1-18.344-0.08C408.428,597.123,406.269,597.063,405.835,594.146z"/>
<path fill-rule="evenodd" clip-rule="evenodd" fill="#FFFAED" d="M454.954,144.794c34.272,6.802,60.243,25.665,76.132,56.414
	c18.146,35.117,17.424,70.9-2.595,105.43c-16.319,28.148-41.011,45.043-72.761,51.752c-2.603,0.55-5.214,1.059-7.82,1.586
	c-4.319,0.064-8.638,0.176-12.957,0.187c-36.289,0.091-65.429-14.956-87.142-43.389c-17.534-22.959-24.682-49.541-20.89-78.433
	c4.119-31.382,19.088-56.743,44.807-75.192c24.193-17.355,51.276-23.494,80.759-18.344
	C453.284,144.946,454.131,144.805,454.954,144.794z"/>
<path fill-rule="evenodd" clip-rule="evenodd" fill="#23553B" d="M441.944,112.076c0.042,4.405,3.148,5.743,6.635,5.837
	c16.804,0.456,32.175,6.295,46.769,13.647c11.019,5.551,21.167,12.851,30.321,21.472c10.323,9.722,19.22,20.363,26.259,32.703
	c5.18,9.081,9.24,18.467,12.468,28.446c2.478,7.665,3.735,15.307,4.648,23.183c0.35,3.019,0.398,6.39,4.545,7.998
	c2.61,1.012,1.751,4.471,0.593,6.554c-1.375,2.475-1.718,4.507-0.054,6.897c1.555,2.232,0.518,4.87,0.804,7.309
	c0.316,2.703-0.862,4.12-3.056,5.938c-2.804,2.324-2.677,6.539-2.97,10.201c-0.691,8.635-0.247,17.621-2.6,25.792
	c-2.548,8.857-3.998,17.941-6.695,26.75c-3.769,12.314-7.304,24.688-11.32,36.94c-4.294,13.091-9.557,25.779-14.746,38.475
	c-4.556,11.141-9.514,22.16-15.09,32.889c-6.103,11.741-11.809,23.675-18.132,35.32c-9.105,16.771-18.622,33.271-28.678,49.489
	c-10.031,16.18-20.452,32.088-31.487,47.597c-0.453,0.637-0.57,1.601-1.882,1.588c-0.683-1.481-0.312-3.127-0.313-4.693
	c-0.021-66.488-0.001-132.976-0.065-199.464c-0.004-3.644,0.406-5.162,4.851-6.455c8.974-2.609,18.321-2.13,27.256-5.226
	c24.255-8.402,43.981-22.572,58.634-43.562c8.472-12.138,14.892-25.393,17.753-40.031c0.669-3.42,3.286-7.529-1.119-10.829
	c-1.245-0.932,0.649-0.77,1.05-1.111c3.135-2.672,3.428-5.955,0.709-8.551c-2.646-2.524-3.144-7.779-0.691-10.335
	c2.684-2.797,3.655-5.535,0.791-8.689c-0.604-0.665-1.031-1.192-0.683-2.147c2.48-6.798-0.395-12.827-2.8-18.902
	c-1.458-3.683-2.076-7.591-3.649-11.293c-3.718-8.744-8.531-16.985-14.495-24.08c-8.424-10.021-17.261-19.774-29.148-26.429
	c-6.959-3.896-13.841-7.985-21.298-10.514c-7.056-2.393-14.047-6.038-21.987-4.871c-1.575,0.231-2.794-0.953-4.193-1.435
	c-3.298-1.134-4.848-0.196-5.933,3.489c-11.058,0.082-11.058,0.082-11.058-10.779c0-5.48,0.149-10.966-0.054-16.439
	c-0.125-3.336,1.338-4.032,4.217-3.493C437.997,111.629,439.979,111.813,441.944,112.076z"/>
<path fill-rule="evenodd" clip-rule="evenodd" fill="#71C498" d="M251.846,659.705c1.582,1.863,3.732,1.051,5.621,1.055
	c26.79,0.056,53.579,0.038,80.369,0.039c1.165,0,2.331-0.024,3.494,0.023c0.792,0.033,1.77-0.182,2.188,0.745
	c0.533,1.181-0.472,1.837-1.15,2.479c-4.286,4.052-9.644,6.441-14.915,8.674c-19.408,8.217-39.911,10.304-60.774,10.204
	c-21.631-0.104-43.263-0.016-64.895-0.029c-5.123-0.004-5.439-0.342-3.271-4.871c2.21-4.617,4.731-9.092,7.216-13.573
	c1.317-2.377,1.269-3.655-1.951-3.547"/>
<path fill-rule="evenodd" clip-rule="evenodd" fill="#393F3C" d="M115.876,356.02c-2.436,1.206-3.381,3.959-5.699,5.38
	c-1.447,0.887-2.897,2.39-4.345,1.113c-1.865-1.644-0.104-3.469,0.979-4.684c2.855-3.2,6.004-6.137,8.996-9.218
	c0.792-0.815,1.436-1.774,2.147-2.667c-0.211-0.466-0.322-1.024-0.026-1.402c5.529-7.077,10.199-14.798,16.172-21.541
	c2.663-2.255,5.364-4.444,8.902-5.203c-2.457,6.769-6.744,12.479-10.804,18.283C127.269,343.129,121.627,349.627,115.876,356.02z"/>
<path fill-rule="evenodd" clip-rule="evenodd" fill="#73C499" d="M558.984,711.808c10.408,0,20.032-0.028,29.654,0.02
	c2.615,0.013,2.619,1.406,1.502,3.278c-3.899,6.542-7.874,13.043-11.612,19.676c-1.478,2.619-2.672,2.016-3.942,0.136
	C569.584,727.521,564.055,720.477,558.984,711.808z"/>
<path fill-rule="evenodd" clip-rule="evenodd" fill="#478C67" d="M134.1,323.001c-4.091,8.556-10.375,15.569-16.146,22.943
	c-3.534-0.912-1.379-3.805-2.003-5.731c-0.681-2.099,1.676-5.14-1.955-6.324C120.795,330.44,126.851,325.62,134.1,323.001z"/>
<path fill-rule="evenodd" clip-rule="evenodd" fill="#1D2918" d="M189.012,214.082c-2.414,1.11-4.863,2.194-7.508,2.531
	c-2.465,0.314-4.967,0.443-7.455,0.454c-2.672,0.012-1.427,3.941-4.062,3.863c-1.45,0.886-0.952,2.354-1.003,3.608
	c-0.064,1.594-0.603,2.477-2.357,2.436c-1.551-0.036-2.47-0.504-2.638-2.233c-0.13-1.335,0.698-3.233-1.447-3.721
	c-1.464-0.333-2.537,0.541-3.347,1.692c-1.295,1.843-1.604,4.206,0.001,5.507c3.621,2.937,2.632,6.734,2.815,10.407
	c0.123,2.471-0.693,3.697-3.378,3.611c-2.35-0.075-4.403-0.121-4.348-3.287c0.017-0.98-0.262-1.965-0.405-2.947
	c0.023-3.32,0.27-6.658,0.009-9.956c-0.282-3.572,1.122-5.93,3.938-7.955c6.184-4.445,12.759-8.247,19.272-12.156
	c2.794-1.677,5.293-1.492,7.53,1.107C186.464,209.175,188.432,211.186,189.012,214.082z"/>
<path fill-rule="evenodd" clip-rule="evenodd" fill="#090909" d="M182.161,218.697c0.574,0.09,5.366-1.285,5.617,2.855
	c0.236,3.91-1.618,5.635-5.694,5.626c-4.443-0.01-4.958-0.748-5.167-5.212C176.705,217.458,181.639,218.789,182.161,218.697z"/>
<path fill-rule="evenodd" clip-rule="evenodd" fill="#7C8074" d="M186.951,225.25c0.087,0.936,0.314,1.251,1.335,1.692
	c1.477,0.67,2.928,1.852,4.433,1.924c7.264,0.346,8.589,0.76,10.094-6.106c0.613-2.799,0.345-2.217,0.128-3.166"/>
<path fill-rule="evenodd" clip-rule="evenodd" fill="#7C8074" d="M174.242,224.028"/>
<path fill-rule="evenodd" clip-rule="evenodd" fill="#090909" d="M195.754,219.304c-0.684-0.034-5.366-1.285-5.617,2.855
	c-0.236,3.909,1.618,5.635,5.694,5.626c4.443-0.01,4.958-0.748,5.167-5.212C201.21,218.065,196.174,219.341,195.754,219.304z"/>
<path fill-rule="evenodd" clip-rule="evenodd" fill="#47906A" d="M223.924,343.871c-1.839,2.188-0.946,4.8-0.903,7.183
	c0.054,2.992-0.876,4.144-3.984,4.056c-6.638-0.186-13.285-0.054-19.929-0.053c-13.287,0-26.585-0.354-39.857,0.096
	c-14.42,0.488-28.829,0.946-43.256,0.653c-0.257-0.427-0.316-0.88-0.185-1.36c3.317-5.827,8.19-10.447,12.249-15.702
	c5.403-6.996,10.189-14.365,14.082-22.306c0.287-0.602,0.563-1.281,1.1-1.638c4.236-2.818,4.918-6.739,3.605-11.314
	c1.344-6.009,2.631-11.937,0.684-18.161c-1.159-3.704-2.462-7.175-4.87-10.261c-0.958-1.229-3.348-3.189-3.626-4.177
	c5.809-0.086,14.105-0.12,19.888-0.488c4.615-0.294,8.458,0.657,11.642,4.114c0.865,0.938,1.169,1.887,2.561,2.424
	c0.813-3.625-0.301-6.53,4.085-6.44c3.301,0.067,6.624-0.399,9.906,0.302c11.568,1.141,20.445,7.016,27.473,15.912
	c6.411,8.116,8.98,17.574,9.104,27.801c0.046,3.811,0.198,7.621,0.301,11.431C226.353,331.929,226.453,337.905,223.924,343.871z"/>
</svg>
